<svg width="12" height="13" viewBox="0 0 12 13" fill="none" xmlns="http://www.w3.org/2000/svg">
<path d="M10.9453 1.17383H1.05469C0.473859 1.17383 0 1.64717 0 2.22852V9.25977C0 9.83914 0.47175 10.3145 1.05469 10.3145H10.9453C11.5247 10.3145 12 9.8427 12 9.25977V2.22852C12 1.64914 11.5282 1.17383 10.9453 1.17383ZM10.7997 1.87695L6.02236 6.65429L1.20373 1.87695H10.7997ZM0.703125 9.11417V2.37076L4.08935 5.72795L0.703125 9.11417ZM1.2003 9.61133L4.58866 6.22297L5.77594 7.40005C5.91337 7.53631 6.13516 7.53587 6.27204 7.39897L7.42969 6.24132L10.7997 9.61133H1.2003ZM11.2969 9.11415L7.92687 5.74414L11.2969 2.37411V9.11415Z" fill="#F6762C"/>
</svg>
